<?xml version="1.0" encoding="UTF-8"?>
<svg version="1.1" xmlns="http://www.w3.org/2000/svg" width="512" height="512">
<path d="M0 0 C168.96 0 337.92 0 512 0 C512 168.96 512 337.92 512 512 C343.04 512 174.08 512 0 512 C0 343.04 0 174.08 0 0 Z " fill="#E51051" transform="translate(0,0)"/>
<path d="M0 0 C168.96 0 337.92 0 512 0 C512 168.96 512 337.92 512 512 C343.04 512 174.08 512 0 512 C0 343.04 0 174.08 0 0 Z M99.69149733 63.15981507 C96.81891744 65.1238067 93.89078437 66.92238338 90.88044411 68.66447216 C89.14401752 69.67641708 87.44397549 70.74997065 85.7450819 71.82373524 C82.85943523 73.59528445 79.9022979 74.9340437 76.79426289 76.27388287 C66.49145759 81.03518821 66.49145759 81.03518821 59.79733253 89.77138543 C58.02414951 97.45044811 58.3100956 105.27909024 58.56262195 113.11086309 C58.654055 116.67231058 58.62257193 120.23305678 58.60667419 123.79534912 C58.5957062 129.95436241 58.66109025 136.10867429 58.77966881 142.26650429 C58.95098049 151.16862271 59.00508941 160.06848796 59.03141663 168.97207584 C59.07728195 183.4191124 59.21676097 197.86364686 59.41577148 212.30932617 C59.60878819 226.33459017 59.75730422 240.35917253 59.84643555 254.38549805 C59.85195274 255.25129835 59.85746993 256.11709866 59.86315431 257.00913534 C59.89056182 261.35297756 59.91709927 265.69682458 59.94320428 270.04067481 C60.16060472 306.02888254 60.53020646 342.01424579 61 378 C62.76548447 377.03949506 64.53067085 376.07844219 66.29573059 375.11715698 C67.27875058 374.58202925 68.26177057 374.04690151 69.27457905 373.49555779 C72.17622944 371.90329519 75.04102199 370.26048391 77.88671875 368.5703125 C79.32241211 367.71953125 79.32241211 367.71953125 80.78710938 366.8515625 C81.74423828 366.28179687 82.70136719 365.71203125 83.6875 365.125 C84.68716797 364.53203125 85.68683594 363.9390625 86.71679688 363.328125 C89.14555981 361.88713646 91.5732721 360.44441208 94 359 C94.00586624 360.04490097 94.01173248 361.08980194 94.01777649 362.16636658 C94.0751168 372.03824509 94.14793725 381.90990571 94.23571491 391.78156185 C94.28034471 396.85606724 94.31961705 401.9304937 94.34643555 407.00512695 C94.37254233 411.90712752 94.41299667 416.80882318 94.46318626 421.71063423 C94.4798052 423.57597611 94.49135033 425.44137066 94.49761391 427.30677605 C94.50730936 429.93001763 94.53543254 432.55248787 94.56762695 435.17553711 C94.56619186 435.9379924 94.56475677 436.70044769 94.5632782 437.48600769 C94.67726513 444.10054562 96.24846904 450.03587069 99.625 455.75 C107.32307541 463.04291355 114.68194005 463.71707583 124.99000549 463.60127258 C126.39681992 463.60346291 127.80363234 463.6078534 129.21043396 463.61424255 C133.06529672 463.62541345 136.91946001 463.60545234 140.77423401 463.58036365 C144.99898851 463.55847595 149.22371255 463.56584026 153.44850826 463.56945324 C161.64359685 463.57210791 169.83841074 463.54905705 178.03342881 463.5169466 C187.51576168 463.48090642 196.99793024 463.47697069 206.48034668 463.47302246 C231.50777456 463.44678484 256.53514142 463.37697909 281.5625 463.3125 C337.476875 463.209375 393.39125 463.10625 451 463 C451 347.83 451 232.66 451 114 C441.43 114 431.86 114 422 114 C422.04640625 110.555625 422.0928125 107.11125 422.140625 103.5625 C422.17186049 100.20981315 422.19612563 96.8571428 422.21972656 93.50439453 C422.23978577 91.18238007 422.26703991 88.86041577 422.30175781 86.53857422 C422.35052541 83.19225655 422.37302643 79.84660941 422.390625 76.5 C422.41127014 75.4694751 422.43191528 74.4389502 422.45318604 73.37719727 C422.45547143 65.96094372 421.16796297 60.82518605 416.32421875 54.9765625 C415.78410156 54.53054687 415.24398438 54.08453125 414.6875 53.625 C414.15511719 53.16351563 413.62273437 52.70203125 413.07421875 52.2265625 C406.72107372 48.46971214 399.87027209 48.68650132 392.71002197 48.65182495 C391.57969661 48.63882705 390.44937126 48.62582915 389.28479362 48.61243737 C385.5001118 48.5717065 381.71547248 48.54523059 377.93066406 48.51904297 C375.90706055 48.50068779 373.88347566 48.48083016 371.85988823 48.46078609 C362.24527196 48.36583238 352.6305261 48.30028351 343.015625 48.2421875 C342.25509146 48.23757234 341.49455792 48.23295718 340.71097791 48.22820216 C325.57460173 48.13720417 310.43816523 48.06031299 295.30160904 48.00674248 C291.97646256 47.99476652 288.65131687 47.98259496 285.32617188 47.97021484 C284.49984063 47.96714888 283.67350939 47.96408292 282.8221378 47.96092404 C269.48033636 47.90966013 256.13981048 47.79604463 242.79866269 47.65728424 C229.06077125 47.51559482 215.32353426 47.4357615 201.58492446 47.41324341 C193.88750538 47.39902074 186.19229663 47.35843618 178.4956131 47.24718857 C171.92991522 47.15234988 165.36676017 47.11411413 158.80040327 47.14495157 C155.46011939 47.15897075 152.12955628 47.14011458 148.78945541 47.0657959 C128.47555933 46.63799486 116.00557317 51.90887154 99.69149733 63.15981507 Z " fill="#FEFEFE" transform="translate(0,0)"/>
<path d="M0 0 C9.57 0 19.14 0 29 0 C29 115.17 29 230.34 29 349 C-54.840625 349.185625 -54.840625 349.185625 -140.375 349.375 C-166.86402588 349.45693604 -166.86402588 349.45693604 -193.88818359 349.54052734 C-215.42504883 349.56762695 -215.42504883 349.56762695 -225.50210571 349.57266235 C-232.55178817 349.57826032 -239.60118572 349.60028051 -246.65078735 349.63345337 C-254.78188763 349.67165877 -262.91271441 349.68901267 -271.04390512 349.6806697 C-275.20305666 349.6770566 -279.36159702 349.68276566 -283.52063632 349.71529078 C-287.28496136 349.74454988 -291.04824472 349.74590364 -294.81261826 349.72540665 C-296.81154175 349.72167315 -298.81045383 349.74747871 -300.80919838 349.77448463 C-308.95614729 349.69369921 -314.63048828 348.24345381 -321 343 C-325.75597996 337.73443811 -326.18915053 332.28766531 -326.36743164 325.46459961 C-326.40620171 324.1566745 -326.40620171 324.1566745 -326.445755 322.82232666 C-326.67135937 314.77525556 -326.80551363 306.72640537 -326.91112614 298.67694759 C-326.98337238 293.27205884 -327.08610016 287.87158717 -327.26196289 282.46899414 C-327.43141656 277.23901012 -327.5214383 272.01306942 -327.55697441 266.78051949 C-327.58390363 264.79257654 -327.6386069 262.80479898 -327.72224617 260.81843376 C-328.32680286 245.7860837 -328.32680286 245.7860837 -324.54502487 241.25783157 C-320.91031266 238.17844828 -316.87305673 236.11914614 -312.52296793 234.23348874 C-309.68075017 232.84391753 -307.15702037 231.14842623 -304.5087862 229.41882133 C-297.93782464 225.57694156 -292.74322018 225.02224015 -285.24371338 225.15821838 C-283.40298583 225.14924692 -283.40298583 225.14924692 -281.52507186 225.14009422 C-278.15342874 225.13062569 -274.78469045 225.15222688 -271.4134016 225.18754065 C-267.76532112 225.21797868 -264.11731861 225.20752569 -260.46914673 225.20222473 C-254.16016999 225.19856729 -247.85170288 225.22039172 -241.54285431 225.2598896 C-232.42158903 225.31695782 -223.30056832 225.33502786 -214.17914388 225.34380554 C-199.37775337 225.35909808 -184.57663403 225.40560655 -169.77539062 225.47192383 C-155.40365934 225.53624941 -141.03200228 225.58568248 -126.66015625 225.61547852 C-125.31615635 225.61829249 -125.31615635 225.61829249 -123.94500494 225.62116331 C-116.93692972 225.63572062 -109.92885288 225.64941862 -102.92077541 225.66284525 C-68.61360132 225.7287934 -34.30710664 225.86964127 0 226 C0 151.42 0 76.84 0 0 Z " fill="#790A2A" transform="translate(422,114)"/>
<path d="M0 0 C2.75388704 0.00259063 5.50772098 -0.00536663 8.26159668 -0.01283264 C14.94316725 -0.0246425 21.62410317 0.00050002 28.30555779 0.03818094 C36.08964577 0.080548 43.87361713 0.08474925 51.657803 0.08720029 C65.54283941 0.09275438 79.4275896 0.13095466 93.3125 0.18847656 C106.78387131 0.24424166 120.25507885 0.27959722 133.7265625 0.29101562 C134.9729792 0.29207801 134.9729792 0.29207801 136.24457604 0.29316186 C137.91856013 0.29457111 139.59254423 0.29597551 141.26652834 0.29737503 C142.09230026 0.29806572 142.91807218 0.29875642 143.76886749 0.29946804 C145.00441621 0.30048569 145.00441621 0.30048569 146.26492551 0.30152389 C159.11254018 0.31275174 171.96012807 0.33973269 184.80771151 0.36949639 C188.68764114 0.37842796 192.56756951 0.38661153 196.44750404 0.39310718 C204.60030191 0.40683809 212.75301155 0.42583655 220.90574127 0.46282088 C224.27639263 0.478029 227.64691636 0.48913317 231.01760864 0.4937973 C234.66781418 0.49950912 238.31775262 0.51748668 241.96789551 0.5388031 C243.03752423 0.53775226 244.10715295 0.53670141 245.20919466 0.53561872 C246.18510923 0.54391771 247.1610238 0.5522167 248.16651154 0.56076717 C249.00906132 0.56380224 249.85161111 0.56683731 250.71969271 0.56996435 C252.99804688 0.82641602 252.99804688 0.82641602 256.99804688 2.82641602 C163.27804687 2.82641602 69.55804688 2.82641602 -27.00195312 2.82641602 C-26.68871094 23.57516602 -26.37546875 44.32391602 -26.05273438 65.70141602 C-25.9147797 78.84470606 -25.78352317 91.98755077 -25.68359375 105.13110352 C-25.63073601 112.03704553 -25.57618438 118.94297099 -25.51879883 125.84887695 C-25.51167761 126.71434812 -25.50455639 127.57981928 -25.49721938 128.47151685 C-25.37997291 142.42112864 -25.16722972 156.36771712 -24.91882763 170.3155396 C-24.66578688 184.64398513 -24.51625659 198.9708552 -24.46156377 213.3014431 C-24.42461574 222.13716286 -24.30827243 230.96434319 -24.08820852 239.7974304 C-23.94478267 245.8657652 -23.90249024 251.92972934 -23.93741594 257.99963343 C-23.95463196 261.49900999 -23.92955069 264.98357017 -23.7834053 268.48025894 C-23.16921223 285.71845134 -23.16921223 285.71845134 -27.00195312 292.82641602 C-32.07622534 297.62810482 -37.9312534 300.87406665 -44.27578527 303.7264595 C-50.77700462 306.3923617 -50.77700462 306.3923617 -55.54711276 311.24173212 C-56.94761151 315.38153316 -57.56810785 319.5339317 -57.21342468 323.90368652 C-57.15680853 324.8034169 -57.10019238 325.70314728 -57.04186058 326.63014221 C-56.98099581 327.55085007 -56.92013103 328.47155792 -56.85742188 329.42016602 C-56.82942421 331.34772419 -56.81347542 333.27549097 -56.80891418 335.20324707 C-56.76524603 340.22907106 -56.56065758 345.23524139 -56.31945801 350.25494385 C-56.10187861 355.39543588 -56.04038573 360.53769211 -55.96484375 365.68188477 C-55.79460144 375.73767888 -55.45386753 385.77960896 -55.00195312 395.82641602 C-55.33195312 395.82641602 -55.66195312 395.82641602 -56.00195312 395.82641602 C-56.33195312 367.77641602 -56.66195312 339.72641602 -57.00195312 310.82641602 C-64.26195313 315.11641602 -71.52195313 319.40641602 -79.00195312 323.82641602 C-82.63195312 325.80641602 -86.26195313 327.78641602 -90.00195312 329.82641602 C-90.52716195 292.99381523 -90.93393461 256.16188275 -91.1764557 219.32628997 C-91.20522038 214.97313572 -91.23498995 210.61998889 -91.26538086 206.2668457 C-91.271414 205.40024915 -91.27744714 204.5336526 -91.2836631 203.64079554 C-91.38362345 189.62643371 -91.56489216 175.61425188 -91.77646744 161.60118143 C-91.99190679 147.21167214 -92.11937601 132.82330064 -92.1659885 118.4322449 C-92.19748266 109.55763465 -92.29673013 100.68918507 -92.48403186 91.81647326 C-92.6060622 85.72364781 -92.64226458 79.63398342 -92.61248481 73.54002605 C-92.59780435 70.02631584 -92.61947108 66.5233149 -92.74367905 63.01153755 C-93.36195896 42.51525659 -93.36195896 42.51525659 -87.74744344 36.35126352 C-82.23293878 31.94297772 -76.20388241 28.88927906 -69.75866044 26.07408452 C-65.97446259 24.36138022 -62.53770262 22.23134887 -59.05273438 19.98657227 C-57.90822019 19.2860774 -56.76175516 18.58875914 -55.61328125 17.89477539 C-53.94413997 16.87985052 -52.27501754 15.86489385 -50.60668945 14.84863281 C-48.90183981 13.8102354 -47.1960411 12.77339671 -45.49023438 11.73657227 C-44.52641846 11.15012939 -43.56260254 10.56368652 -42.56958008 9.95947266 C-42.01422482 9.64473747 -41.45886957 9.33000229 -40.88668537 9.00572968 C-38.91055532 7.83130579 -38.91055532 7.83130579 -36.97783947 6.11591339 C-26.13869874 -1.9604891 -12.87361369 -0.11357714 0 0 Z " fill="#E75883" transform="translate(151.001953125,48.173583984375)"/>
<path d="M0 0 C0.95708359 0.00222061 1.91416718 0.00444122 2.9002533 0.00672913 C3.98129837 0.00680466 5.06234344 0.00688019 6.17614746 0.00695801 C7.94018166 0.01469994 7.94018166 0.01469994 9.73985291 0.02259827 C10.93702438 0.02401321 12.13419586 0.02542816 13.36764526 0.02688599 C17.20918732 0.03250472 21.05067208 0.04506041 24.89219666 0.05775452 C27.48920102 0.0627671 30.0862063 0.06733043 32.68321228 0.07142639 C39.06539344 0.08248024 45.44754096 0.0992366 51.82969666 0.12025452 C52.05661194 0.89060532 52.28352722 1.66095612 52.51731873 2.45465088 C57.50423421 19.38039165 62.61240037 36.26398737 67.82969666 53.12025452 C69.22731342 57.64053903 70.62267451 62.1615145 72.01719666 66.68275452 C72.32592712 67.67992493 72.63465759 68.67709534 72.95274353 69.70448303 C74.68782246 75.32921474 76.37516688 80.9660907 78.02500916 86.61634827 C80.28132129 94.33320575 82.61805416 102.02471189 84.96641541 109.71400452 C85.33475998 110.9212468 85.70310455 112.12848907 86.08261108 113.37231445 C87.61650298 118.39860877 89.1505692 123.42484464 90.69029236 128.44935608 C91.82708894 132.16163667 92.95958942 135.87520591 94.09141541 139.58900452 C94.43726181 140.71415466 94.78310822 141.83930481 95.13943481 142.99855042 C95.46349808 144.06416199 95.78756134 145.12977356 96.1214447 146.22767639 C96.40392563 147.15124939 96.68640656 148.07482239 96.97744751 149.02638245 C98.07741673 153.01953876 98.93119517 157.07699782 99.82969666 161.12025452 C86.29969666 161.12025452 72.76969666 161.12025452 58.82969666 161.12025452 C57.71594666 157.30462952 56.60219666 153.48900452 55.45469666 149.55775452 C54.93383484 147.77389343 54.93383484 147.77389343 54.40245056 145.95399475 C53.81693081 143.94724661 53.23322854 141.93996761 52.65098572 139.93226624 C52.16235404 138.25924019 51.66686439 136.58815459 51.15684509 134.92152405 C50.20125154 131.76570582 49.82969666 129.48246668 49.82969666 126.12025452 C33.65969666 126.45025452 17.48969666 126.78025452 0.82969666 127.12025452 C-1.75923776 137.18697154 -1.75923776 137.18697154 -4.34584045 147.25428772 C-4.66818665 148.50556458 -4.99053284 149.75684143 -5.32264709 151.04603577 C-5.4902655 151.70003357 -5.65788391 152.35403137 -5.83058167 153.02784729 C-6.5355691 155.76013292 -7.27755085 158.44199704 -8.17030334 161.12025452 C-21.37030334 161.12025452 -34.57030334 161.12025452 -48.17030334 161.12025452 C-45.71658029 151.30536232 -43.23575972 141.575172 -40.42030334 131.87025452 C-39.71838162 129.43278297 -39.01656166 126.99528211 -38.31483459 124.55775452 C-37.95985901 123.32798889 -37.60488342 122.09822327 -37.239151 120.83119202 C-35.85346908 116.02023607 -34.48198816 111.20528842 -33.11048889 106.39027405 C-30.59727917 97.56742092 -28.06800366 88.75031571 -25.47743225 79.94984436 C-22.76836948 70.74572373 -20.18750468 61.52057331 -17.73280334 52.24525452 C-15.05006188 42.11231803 -12.08967923 32.08937799 -8.92250061 22.0973053 C-6.97440189 15.91496696 -5.27370587 9.72818189 -3.79237366 3.41664124 C-2.91052299 0.16126941 -2.91052299 0.16126941 0 0 Z " fill="#FEFCFD" transform="translate(247.17030334472656,113.87974548339844)"/>
<path d="M0 0 C33.07692308 0 33.07692308 0 41 6.4375 C47.0219492 14.15312242 47.22638613 20.1518239 47.3125 29.6875 C47.34150391 30.73873047 47.37050781 31.78996094 47.40039062 32.87304688 C47.48008086 42.72398645 45.13056331 48.33679587 39 56 C27 61 27 61 0 61 C0 40.87 0 20.74 0 0 Z " fill="#FDFCFC" transform="translate(308,369)"/>
<path d="M0 0 C6.93 0 13.86 0 21 0 C24.43166592 10.13538539 27.73753007 20.26287511 30.703125 30.54296875 C31.64480031 33.80414679 32.61902613 37.05405242 33.609375 40.30078125 C33.88201172 41.19684082 34.15464844 42.09290039 34.43554688 43.01611328 C34.96528102 44.75362856 35.49769021 46.49033129 36.03320312 48.22607422 C36.27490234 49.02158691 36.51660156 49.81709961 36.765625 50.63671875 C36.97993164 51.33498779 37.19423828 52.03325684 37.41503906 52.75268555 C38.12020983 55.46182449 38.53977973 58.2386784 39 61 C33.72 61 28.44 61 23 61 C20 50.375 20 50.375 20 47 C13.73 47 7.46 47 1 47 C0.67 49.64 0.34 52.28 0 55 C-0.66 56.98 -1.32 58.96 -2 61 C-6.95 61 -11.9 61 -17 61 C-15.63371757 54.44715029 -13.8833359 48.13191929 -11.875 41.75 C-8.92499057 32.23417375 -6.19489341 22.66983149 -3.5625 13.0625 C-3.38338074 12.40882446 -3.20426147 11.75514893 -3.01971436 11.08166504 C-2.00892689 7.38890908 -1.00384069 3.69465523 0 0 Z " fill="#FCFAFA" transform="translate(260,369)"/>
<path d="M0 0 C3.77032747 2.45890922 6.17229492 4.86361481 8 9 C8.1875 12.8125 8.1875 12.8125 8 16 C3.61592 16.34211029 -0.62835587 16.54713266 -5 16 C-7.6875 13.0625 -7.6875 13.0625 -9 10 C-12.13400885 8.43299558 -15.63155095 8.14835439 -19 9 C-22.6985131 12.75488369 -23.5047685 15.21756302 -23.49609375 20.4375 C-23.49673828 21.66210938 -23.49738281 22.88671875 -23.49804688 24.1484375 C-23.47806641 25.41945313 -23.45808594 26.69046875 -23.4375 28 C-23.44458984 29.27101563 -23.45167969 30.54203125 -23.45898438 31.8515625 C-23.57798163 40.69890784 -23.57798163 40.69890784 -19 48 C-16.96729438 48.23820921 -16.96729438 48.23820921 -14.625 48.25 C-13.43777344 48.28867187 -13.43777344 48.28867187 -12.2265625 48.328125 C-9.96076569 48.1633171 -9.96076569 48.1633171 -8.2734375 46.796875 C-6.58059893 44.66656349 -6.58059893 44.66656349 -6 40 C-1.05 40 3.9 40 9 40 C8.79142735 45.84003431 7.74804669 49.68822395 3.98046875 54.234375 C-2.29233367 59.8266959 -10.74256091 60.73995619 -18.8515625 60.44140625 C-25.93846247 59.44783343 -31.13385308 56.55201683 -35.5625 50.9375 C-40.0148208 44.56803256 -39.2865404 37.37392692 -39.35009766 29.89306641 C-39.36661794 28.47134995 -39.39385692 27.04971521 -39.43212891 25.62841797 C-39.84152702 10.30980869 -39.84152702 10.30980869 -34 4 C-25.23337714 -5.13579064 -10.99571411 -5.38283912 0 0 Z " fill="#FCF9F9" transform="translate(231,371)"/>
<path d="M0 0 C2.53486506 2.53486506 2.70226983 4.2843062 3.48046875 7.7734375 C3.89111572 9.58001831 3.89111572 9.58001831 4.31005859 11.4230957 C4.6025622 12.740392 4.8950421 14.05769356 5.1875 15.375 C5.80445481 18.10641666 6.42706004 20.83652759 7.05078125 23.56640625 C7.2096582 24.26410629 7.36853516 24.96180634 7.53222656 25.6806488 C8.62193504 30.43706885 9.77567035 35.17382706 10.98046875 39.90234375 C11.29798096 41.14902832 11.61549316 42.39571289 11.94262695 43.68017578 C12.54980948 46.04562789 13.1614033 48.40995347 13.77807617 50.77294922 C14.05498291 51.85463379 14.33188965 52.93631836 14.6171875 54.05078125 C14.86065918 54.98575439 15.10413086 55.92072754 15.35498047 56.8840332 C16.18115586 60.87512953 16.54991308 64.94921768 17 69 C6.11 69 -4.78 69 -16 69 C-14.36598403 61.74455801 -12.73080167 54.48939787 -11.09277344 47.23486328 C-10.5374222 44.77374994 -9.98271894 42.31249028 -9.42871094 39.85107422 C-6.42989045 26.52959908 -3.41986367 13.22075464 0 0 Z " fill="#E51553" transform="translate(271,141)"/>
<path d="M0 0 C11.57142857 0 11.57142857 0 15 3 C17.96955331 7.78824907 17.3294756 12.91564565 17.3125 18.375 C17.32861328 19.40367187 17.34472656 20.43234375 17.36132812 21.4921875 C17.36491738 27.06270459 17.21939581 31.22936989 14 36 C9.32070457 40.12879008 6.99688796 39 0 39 C0 26.13 0 13.26 0 0 Z " fill="#7A0A2B" transform="translate(323,380)"/>
<path d="M0 0 C0 0.66 0 1.32 0 2 C-0.99 2 -1.98 2 -3 2 C-3 97.04 -3 192.08 -3 290 C-2.34 290.33 -1.68 290.66 -1 291 C-2.32 291.66 -3.64 292.32 -5 293 C-5.06860595 255.96237703 -5.12149815 218.92476361 -5.15319599 181.88709 C-5.15694829 177.51847657 -5.16083124 173.14986325 -5.16479492 168.78125 C-5.16558185 167.91150572 -5.16636878 167.04176144 -5.16717956 166.14566128 C-5.18024791 152.04673206 -5.20390958 137.94783938 -5.23145839 123.84893186 C-5.25947289 109.39154584 -5.27616786 94.934179 -5.28226548 80.47676694 C-5.28639016 71.54948616 -5.29943635 62.62230865 -5.3237494 53.69505964 C-5.33955783 47.58055935 -5.34441152 41.46611277 -5.34050413 35.35159351 C-5.33857491 31.81921001 -5.34161574 28.28700749 -5.35761642 24.75465584 C-5.37480486 20.93236719 -5.36899672 17.11031762 -5.36076355 13.28799438 C-5.36950207 12.16155411 -5.3782406 11.03511384 -5.38724393 9.87453902 C-5.38127078 8.85688881 -5.37529764 7.8392386 -5.36914349 6.7907505 C-5.37028265 5.90752102 -5.37142181 5.02429153 -5.37259549 4.11429751 C-5.24963898 3.41657933 -5.12668247 2.71886115 -5 2 C-2 0 -2 0 0 0 Z " fill="#E5839D" transform="translate(66,85)"/>
<path d="M0 0 C2.26674424 2.26674424 2.53597078 3.40582789 3.2890625 6.46484375 C3.61777344 7.78838867 3.61777344 7.78838867 3.953125 9.13867188 C4.17484375 10.06228516 4.3965625 10.98589844 4.625 11.9375 C4.85445313 12.85724609 5.08390625 13.77699219 5.3203125 14.72460938 C7 21.57833426 7 21.57833426 7 25 C3.04 25 -0.92 25 -5 25 C-4.37392048 19.20052651 -3.32599062 13.66190169 -1.9375 8 C-1.75123047 7.22527344 -1.56496094 6.45054687 -1.37304688 5.65234375 C-0.91923822 3.76729241 -0.46017508 1.8835073 0 0 Z " fill="#791635" transform="translate(270,380)"/>
<path d="M0 0 C0.33 0 0.66 0 1 0 C1.02689216 1.47906892 1.04634621 2.95827483 1.0625 4.4375 C1.07410156 5.26121094 1.08570313 6.08492187 1.09765625 6.93359375 C1 9 1 9 0 10 C-0.165 11.155 -0.33 12.31 -0.5 13.5 C-1 17 -1 17 -2 18 C-2.185625 19.546875 -2.185625 19.546875 -2.375 21.125 C-3 25 -3 25 -6 32 C-19.86 32 -33.72 32 -48 32 C-47 23 -47 23 -45 21 C-45.33 23.64 -45.66 26.28 -46 29 C-26.695 29.495 -26.695 29.495 -7 30 C-6.34 26.7 -5.68 23.4 -5 20 C-4.58719629 18.21216328 -4.16153811 16.42712413 -3.7109375 14.6484375 C-3.38222656 13.34326172 -3.38222656 13.34326172 -3.046875 12.01171875 C-2.71429688 10.70654297 -2.71429688 10.70654297 -2.375 9.375 C-2.14554688 8.46621094 -1.91609375 7.55742187 -1.6796875 6.62109375 C-1.1219792 4.41349839 -0.56206087 2.2064904 0 0 Z " fill="#D72D57" transform="translate(246,245)"/>
<path d="M0 0 C3.3 0 6.6 0 10 0 C10 0.33 10 0.66 10 1 C7.36 1 4.72 1 2 1 C2 12.88 2 24.76 2 37 C5.3 37 8.6 37 12 37 C9 39 9 39 0 39 C0 26.13 0 13.26 0 0 Z " fill="#6B1B33" transform="translate(323,380)"/>
<path d="M0 0 C0.66 0.66 1.32 1.32 2 2 C4.70135323 2.19973733 7.29797211 2.27981573 10 2.265625 C11.18722656 2.26849518 11.18722656 2.26849518 12.3984375 2.27142334 C14.0729199 2.27278518 15.74741285 2.26908882 17.421875 2.26074219 C19.98982381 2.2500424 22.55707303 2.26063725 25.125 2.2734375 C26.75000155 2.2721159 28.37500266 2.26955351 30 2.265625 C31.15628906 2.27169769 31.15628906 2.27169769 32.3359375 2.27789307 C36.63129437 2.39644711 36.63129437 2.39644711 40 0 C40.495 1.98 40.495 1.98 41 4 C27.47 4 13.94 4 0 4 C-0.33 3.01 -0.66 2.02 -1 1 C-0.67 0.67 -0.34 0.34 0 0 Z " fill="#FFECF3" transform="translate(306,271)"/>
<path d="M0 0 C0.33 0 0.66 0 1 0 C1.02689216 1.47906892 1.04634621 2.95827483 1.0625 4.4375 C1.07410156 5.26121094 1.08570313 6.08492187 1.09765625 6.93359375 C1 9 1 9 0 10 C-0.165 11.155 -0.33 12.31 -0.5 13.5 C-1 17 -1 17 -2 18 C-2.1546875 19.6396875 -2.1546875 19.6396875 -2.3125 21.3125 C-3.07747278 25.41553579 -4.00980062 26.29628679 -7 29 C-4.7392746 19.31445564 -2.45165321 9.63945469 0 0 Z " fill="#E43D6F" transform="translate(246,245)"/>
<path d="M0 0 C2.62587906 2.62587906 2.85778351 4.77281623 3.6875 8.375 C3.95949219 9.51710937 4.23148437 10.65921875 4.51171875 11.8359375 C4.95830381 14.72980868 4.99155833 16.29816991 4 19 C4 18.01 4 17.02 4 16 C3.34 16 2.68 16 2 16 C1.67 13.36 1.34 10.72 1 8 C0.34 9.32 -0.32 10.64 -1 12 C-2.09898702 8.70303895 -1.87124444 7.59505097 -1.0625 4.3125 C-0.86785156 3.50425781 -0.67320312 2.69601563 -0.47265625 1.86328125 C-0.31667969 1.24839844 -0.16070312 0.63351563 0 0 Z " fill="#DF4C74" transform="translate(271,141)"/>
<path d="M0 0 C0.66 0 1.32 0 2 0 C1.5003731 7.49440349 -0.43764478 13.95650263 -3 21 C-3.33 21 -3.66 21 -4 21 C-4 18.69 -4 16.38 -4 14 C-3.34 14 -2.68 14 -2 14 C-1.93941406 13.40832031 -1.87882813 12.81664062 -1.81640625 12.20703125 C-1.37987629 8.09021792 -0.91328654 4.04455467 0 0 Z " fill="#E33368" transform="translate(221,188)"/>
<path d="M0 0 C2.5654594 2.5654594 2.54046087 4.47686668 3 8 C1.68 8.33 0.36 8.66 -1 9 C-1 11.31 -1 13.62 -1 16 C-1.66 16.33 -2.32 16.66 -3 17 C-2.54775239 11.08507728 -1.8417395 5.64800112 0 0 Z " fill="#83304A" transform="translate(270,380)"/>
<path d="M0 0 C1.25127906 3.54667178 0.72285053 5.72253438 -0.4375 9.25 C-0.72496094 10.14203125 -1.01242188 11.0340625 -1.30859375 11.953125 C-1.53675781 12.62859375 -1.76492187 13.3040625 -2 14 C-2.33 14 -2.66 14 -3 14 C-3.34615998 8.34605369 -2.43425238 4.96993194 0 0 Z " fill="#E13E6A" transform="translate(210,231)"/>
<path d="M0 0 C0.33 0 0.66 0 1 0 C1.08153933 1.58246707 1.13943557 3.16616273 1.1875 4.75 C1.23970703 6.07257813 1.23970703 6.07257813 1.29296875 7.421875 C0.94923684 10.44671583 -0.00227459 11.75583602 -2 14 C-1.85795259 12.41632253 -1.71119847 10.83306682 -1.5625 9.25 C-1.48128906 8.36828125 -1.40007812 7.4865625 -1.31640625 6.578125 C-1.03761535 4.30649548 -0.61209423 2.20148177 0 0 Z " fill="#E5406F" transform="translate(262,179)"/>
<path d="M0 0 C2.1991413 4.39828259 2.51855059 7.18550592 3 12 C2.67 11.34 2.34 10.68 2 10 C1.34 10 0.68 10 0 10 C0 6.7 0 3.4 0 0 Z " fill="#E54270" transform="translate(281,181)"/>
<path d="M0 0 C0.33 0.66 0.66 1.32 1 2 C-0.65 3.98 -2.3 5.96 -4 8 C-4.99 7.67 -5.98 7.34 -7 7 C-6.21625 6.401875 -5.4325 5.80375 -4.625 5.1875 C-1.85425677 3.08914751 -1.85425677 3.08914751 0 0 Z " fill="#812A45" transform="translate(236,422)"/>
</svg>
